<?xml version="1.0" standalone="no"?>
<!DOCTYPE svg PUBLIC "-//W3C//DTD SVG 20010904//EN"
 "http://www.w3.org/TR/2001/REC-SVG-20010904/DTD/svg10.dtd">
<svg version="1.0" xmlns="http://www.w3.org/2000/svg"
 width="900.000000pt" height="183.000000pt" viewBox="0 0 900.000000 183.000000"
 preserveAspectRatio="xMidYMid meet">
<metadata>
Created by potrace 1.10, written by Peter Selinger 2001-2011
</metadata>
<g transform="translate(0.000000,183.000000) scale(0.100000,-0.100000)"
fill="#6c62e2" stroke="none">
<path d="M453 1522 c-24 -15 -56 -46 -73 -69 l-30 -43 0 -177 c0 -203 3 -193
-92 -262 -53 -38 -58 -45 -58 -79 0 -34 6 -42 73 -97 l72 -61 3 -181 c2 -145
5 -183 17 -193 8 -7 15 -18 15 -24 0 -18 61 -69 101 -85 44 -18 108 -26 120
-14 4 4 5 37 1 73 l-7 65 -37 3 c-62 5 -68 23 -68 199 0 134 -3 159 -21 197
-20 44 -38 66 -72 89 -23 16 -13 45 18 57 14 5 33 31 49 64 25 52 26 63 26
219 0 153 1 165 21 183 11 10 32 17 49 16 37 -3 42 7 45 84 l2 64 -56 0 c-44
0 -65 -6 -98 -28z"/>
<path d="M827 1543 c-2 -5 -2 -38 1 -75 l4 -68 42 0 c70 -1 76 -18 73 -216 -1
-158 0 -172 21 -210 12 -23 34 -46 47 -52 34 -16 33 -52 -3 -75 -55 -37 -67
-84 -67 -257 0 -186 -8 -210 -75 -210 l-40 0 -2 -55 c-1 -30 -2 -63 -2 -72 -2
-29 60 -28 125 1 112 49 141 123 138 341 -3 155 -13 131 89 214 51 43 68 85
47 117 -8 12 -39 39 -69 59 -30 20 -58 46 -62 58 -4 12 -7 83 -5 158 4 199
-25 277 -123 330 -36 19 -131 27 -139 12z"/>
<path d="M1984 1268 c-3 -4 -5 -205 -6 -446 l0 -437 57 0 58 0 -2 193 -2 192
59 0 c59 0 77 -9 96 -50 10 -21 25 -46 74 -118 23 -35 42 -65 42 -68 0 -2 14
-23 30 -46 17 -22 30 -46 30 -52 1 -6 9 -21 19 -33 16 -19 29 -23 78 -23 33 0
63 3 66 6 9 9 -7 36 -43 76 -17 18 -30 36 -30 41 0 5 -20 35 -45 67 -25 32
-45 62 -45 65 0 9 -59 86 -78 102 -7 6 -12 22 -10 35 2 17 11 24 39 29 56 9
113 56 152 126 24 44 23 152 -2 201 -38 74 -99 114 -196 130 -86 14 -334 22
-341 10z m348 -102 c20 -9 49 -28 63 -43 22 -25 25 -36 25 -103 -1 -63 -4 -79
-23 -101 -46 -53 -74 -63 -194 -67 l-113 -5 0 173 0 173 103 -5 c61 -4 117
-12 139 -22z"/>
<path d="M2753 1263 c-2 -6 -3 -26 -1 -45 l3 -33 100 0 100 0 3 -358 2 -359
-92 2 c-51 1 -99 2 -105 1 -8 -1 -13 -17 -13 -46 l0 -45 258 2 257 3 3 42 c2
30 -1 43 -10 44 -7 1 -56 2 -108 3 -89 1 -95 2 -91 21 2 11 5 171 5 355 l1
335 100 0 c97 0 100 1 103 24 2 12 1 33 -2 45 -5 21 -8 21 -257 21 -181 0
-253 -3 -256 -12z"/>
<path d="M3533 1264 c-2 -7 -3 -29 -1 -50 l3 -39 150 3 c83 1 176 5 208 8 54
6 57 5 57 -16 0 -12 -20 -48 -45 -80 -25 -32 -45 -63 -45 -68 0 -6 -4 -12 -8
-14 -7 -3 -63 -80 -87 -120 -5 -9 -46 -70 -90 -135 -44 -65 -82 -122 -84 -128
-2 -5 -25 -37 -50 -69 -39 -52 -46 -67 -49 -118 l-4 -58 290 0 289 0 7 42 c5
29 3 45 -6 53 -9 8 -70 9 -223 3 -115 -4 -216 -6 -222 -3 -20 7 -15 22 20 62
17 21 37 46 42 55 6 9 97 146 203 305 184 275 193 290 190 331 l-3 43 -269 2
c-194 1 -270 -1 -273 -9z"/>
<path d="M4262 1268 c-8 -8 -12 -57 -12 -152 0 -78 -6 -211 -14 -296 -8 -85
-16 -218 -18 -295 l-3 -140 50 0 50 0 8 125 c4 69 8 238 10 375 2 208 4 250
16 250 8 0 17 -11 21 -25 18 -65 30 -123 30 -147 0 -14 7 -51 16 -82 51 -183
65 -237 72 -291 l7 -45 50 -6 c61 -8 70 1 85 80 6 31 17 77 25 102 8 26 15 59
15 73 0 15 5 36 10 46 10 19 24 91 40 214 10 72 24 101 39 77 8 -12 12 -102
29 -566 l7 -180 49 -3 c27 -2 53 1 58 6 5 5 2 69 -7 155 -8 81 -15 195 -15
254 0 59 -5 160 -11 223 -6 63 -12 144 -13 180 -2 36 -4 68 -5 72 0 4 -34 6
-73 5 l-73 -2 -17 -50 c-9 -27 -17 -63 -17 -79 -1 -16 -7 -52 -15 -80 -8 -28
-22 -87 -32 -131 -9 -44 -23 -107 -30 -141 -8 -33 -14 -73 -14 -88 0 -20 -4
-27 -16 -24 -11 2 -21 22 -29 58 -31 137 -38 168 -46 210 -8 46 -20 96 -45
186 -8 28 -14 65 -14 82 0 47 -22 62 -94 62 -35 0 -67 -5 -74 -12z"/>
<path d="M5260 1265 c-7 -9 -16 -32 -20 -53 -5 -20 -14 -53 -20 -72 -7 -19
-18 -51 -25 -70 -7 -19 -18 -51 -25 -70 -7 -19 -15 -48 -17 -65 -3 -16 -10
-36 -16 -43 -5 -7 -13 -29 -17 -50 -8 -39 -24 -86 -46 -140 -8 -18 -14 -43
-14 -55 0 -12 -7 -31 -15 -41 -8 -11 -15 -30 -15 -42 0 -12 -7 -35 -15 -50 -8
-16 -15 -36 -15 -45 0 -8 -7 -24 -15 -35 -31 -41 -20 -54 45 -54 50 0 60 3 60
18 0 9 6 37 14 62 8 25 22 71 31 103 l16 57 177 0 177 0 18 -60 c9 -33 25 -87
35 -120 l17 -60 58 0 c64 0 71 11 43 67 -16 33 -35 85 -46 132 -5 18 -13 38
-19 44 -6 6 -11 22 -11 36 -1 15 -7 37 -15 51 -8 14 -14 37 -15 51 0 14 -7 34
-15 45 -8 10 -15 30 -15 44 0 14 -6 34 -14 45 -7 11 -16 34 -18 50 -3 17 -11
46 -18 65 -7 19 -18 51 -25 70 -7 19 -18 51 -25 70 -6 19 -16 52 -20 74 -4 21
-14 42 -21 47 -24 15 -125 11 -139 -6z m88 -117 c7 -7 12 -23 12 -37 0 -15 6
-46 14 -71 8 -25 22 -72 31 -105 9 -33 23 -75 31 -93 8 -18 14 -37 14 -43 0
-6 7 -26 16 -45 9 -19 13 -38 9 -42 -3 -4 -72 -7 -151 -8 -140 -1 -144 -1
-144 20 0 11 7 30 15 40 8 11 15 28 15 38 0 9 6 32 14 50 8 18 22 60 31 93 10
33 24 77 31 98 8 20 14 55 14 77 0 32 4 40 18 40 10 0 23 -5 30 -12z"/>
<path d="M5835 1271 c-3 -5 -6 -207 -6 -448 l-1 -438 51 -3 51 -3 -1 288 c0
158 -5 313 -10 343 -19 117 -21 138 -11 144 12 7 46 -48 61 -96 19 -67 63
-183 72 -192 5 -6 9 -19 9 -30 0 -12 7 -30 15 -40 8 -11 15 -30 15 -42 0 -12
7 -27 15 -34 8 -7 15 -21 15 -32 0 -11 6 -32 13 -46 8 -15 22 -45 31 -67 10
-22 24 -53 32 -68 8 -16 14 -37 14 -48 0 -11 7 -33 15 -50 16 -30 17 -30 91
-27 l75 3 0 435 c0 239 -1 441 -1 448 0 9 -14 12 -47 10 l-48 -3 4 -310 c1
-171 7 -344 11 -385 5 -41 7 -76 5 -78 -2 -2 -12 1 -24 7 -12 7 -23 26 -27 49
-4 20 -17 61 -30 91 -13 29 -24 61 -24 70 0 10 -7 26 -15 37 -8 10 -15 27 -15
36 0 16 -6 30 -44 106 -9 19 -16 40 -16 47 0 7 -6 26 -14 42 -8 15 -22 46 -32
68 -9 22 -23 52 -31 67 -7 14 -13 33 -13 41 0 9 -8 30 -17 49 -9 18 -19 40
-23 48 -8 17 -135 26 -145 11z"/>
<path d="M6553 1267 c-9 -15 -7 -77 3 -87 7 -7 53 -7 135 -2 68 5 128 7 132 4
4 -2 7 -182 7 -400 l-2 -397 57 0 57 0 -1 355 c-1 195 -4 369 -7 386 -7 37 17
66 49 60 12 -3 64 -8 115 -11 109 -8 122 -2 122 59 l0 41 -331 0 c-182 0 -333
-4 -336 -8z"/>
<path d="M7434 1271 c-2 -2 -4 -204 -4 -448 l0 -443 261 0 260 0 -3 47 -3 47
-199 0 -198 1 0 158 c-1 87 1 159 3 161 2 2 74 0 159 -4 85 -3 158 -5 163 -3
4 2 7 27 7 55 l0 51 -167 -4 -167 -4 2 135 c1 74 2 142 2 151 0 14 20 15 180
11 201 -5 210 -3 210 57 l0 36 -251 0 c-138 0 -252 -2 -255 -4z"/>
<path d="M8178 848 c-1 -235 -2 -436 -2 -445 -1 -15 8 -18 59 -18 l60 0 -4
150 c-3 83 -5 168 -5 190 l-1 40 60 3 c62 3 78 -6 106 -63 5 -11 17 -32 27
-46 9 -15 37 -59 62 -99 25 -40 53 -84 62 -99 9 -14 23 -37 30 -51 12 -22 21
-25 77 -28 35 -2 68 1 73 6 5 5 -6 25 -26 48 -20 21 -36 43 -36 47 0 5 -20 35
-45 67 -25 32 -45 62 -45 65 0 4 -23 36 -51 72 -59 75 -62 106 -12 111 17 2
37 10 43 18 7 8 18 14 26 14 20 0 79 81 92 126 16 54 15 89 -3 149 -38 123
-131 161 -412 168 l-133 4 -2 -429z m354 318 c110 -46 124 -200 26 -278 -42
-33 -42 -33 -157 -33 l-114 0 0 156 c0 86 4 162 8 169 11 17 187 7 237 -14z"/>
<path d="M1423 593 c-32 -6 -83 -71 -83 -107 0 -70 71 -126 144 -112 37 7 55
24 81 75 16 31 16 36 0 70 -26 57 -80 85 -142 74z"/>
</g>
</svg>
